<svg height="512" viewBox="0 0 48 60" width="512" xmlns="http://www.w3.org/2000/svg"><g id="Page-1" fill="none" fill-rule="evenodd"><g id="001---Happy-Boy" fill-rule="nonzero" transform="translate(0 -1)"><path id="Shape" d="m42 27v6c-.0011972.668145-.0379157 1.3357538-.11 2-1.0124752 9.1161546-8.7177931 16.0130677-17.89 16.0130677s-16.87752476-6.8969131-17.89-16.0130677c-.07208429-.6642462-.10880278-1.331855-.11-2v-6c1.69269936-1.7157869 3.20710748-3.5987457 4.52-5.62 4.77.51 15.47.9 24.48-4.35 1.7889677 3.6740415 4.1519234 7.0395656 7 9.97z" fill="#ffe0b2"/><path id="Shape" d="m35 17.03c-.781.455-1.577.853-2.379 1.227 1.7015455 3.2017278 3.8493396 6.145475 6.379 8.743v6c-.0011972.668145-.0379157 1.3357538-.11 2-.9474057 8.5481108-7.8184331 15.2267159-16.39 15.931.5.042.993.069 1.5.069 9.1661754-.0033552 16.8674648-6.8910371 17.89-16 .0720843-.6642462.1088028-1.331855.11-2v-6c-2.8480766-2.9304344-5.2110323-6.2959585-7-9.97z" fill="#dfc49c"/><path id="Shape" d="m29 50.29v2.71c0 1.6568542-1.3431458 3-3 3h-4c-1.6548028-.0049422-2.9950578-1.3451972-3-3v-2.71c3.2661229.9466466 6.7338771.9466466 10 0z" fill="#ffe0b2"/><path id="Shape" d="m26 50.877v2.123c0 1.6568542-1.3431458 3-3 3h3c1.6568542 0 3-1.3431458 3-3v-2.71c-.9814871.2806252-1.9851264.4770039-3 .587z" fill="#dfc49c"/><path id="Shape" d="m40 60h-32c0-3.8659932 3.1340068-7 7-7h4c.0049422 1.6548028 1.3451972 2.9950578 3 3h4c1.6568542 0 3-1.3431458 3-3h4c3.8659932 0 7 3.1340068 7 7z" fill="#02a9f4"/><path id="Shape" d="m37.95 55.05c-1.3102237-1.3166613-3.0925123-2.0547808-4.95-2.05l-3-.0000231c3.8659932.0000231 7 3.1340299 7 7.0000231h3.0000231c.0047577-1.8574877-.7333618-3.6397763-2.0500231-4.95z" fill="#0377bc"/><path id="Shape" d="m6.11 35h-1.61c-1.93299662 0-3.5-1.5670034-3.5-3.5.00930245-1.9291303 1.57086971-3.4906976 3.5-3.5h1.5v5c.00119722.668145.03791571 1.3357538.11 2z" fill="#ffe0b2"/><path id="Shape" d="m47 31.5c0 1.9329966-1.5670034 3.5-3.5 3.5h-1.61c.0720843-.6642462.1088028-1.331855.11-2v-5h1.5c1.9291303.0093024 3.4906976 1.5708697 3.5 3.5z" fill="#ffe0b2"/><circle id="Oval" cx="15" cy="31" fill="#3f51b5" r="2"/><circle id="Oval" cx="33" cy="31" fill="#3f51b5" r="2"/><path id="Shape" d="m27.83 45.86c-2.3268313 1.5209671-5.3331687 1.5209671-7.66 0 .5018671-1.6968802 2.0604596-2.8612441 3.83-2.8612441s3.3281329 1.1643639 3.83 2.8612441z" fill="#e91e63"/><path id="Shape" d="m31.0000011 39-.0000011 1c.0013421 2.3634783-1.1910754 4.5677581-3.17 5.86-.5018671-1.6968802-2.0604596-2.8612441-3.83-2.8612441s-3.3281329 1.1643639-3.83 2.8612441c-1.9789246-1.2922419-3.1713421-3.4965217-3.17-5.86l-.0000011-1z" fill="#ad1457"/><path id="Shape" d="m42 27c-2.8480766-2.9304344-5.2110323-6.2959585-7-9.97-9.01 5.25-19.71 4.86-24.48 4.35-1.31289252 2.0212543-2.82730064 3.9042131-4.52 5.62-3.53299398-6.9800922-3.15359037-15.3004133 1-21.93 0 0 4 0 5 2.99 0 0 4-2.99 2-5.98 0 0 13-1 17 3.99 3.0912651-.09468331 5.9873159-1.53357868 7.93-3.94l2.07 2.94c4.1535904 6.6295867 4.532994 14.9499078 1 21.93z" fill="#a0522d"/><path id="Shape" d="m41 5.07-2.07-2.94c-.5220449.64663443-1.1196308 1.22844139-1.78 1.733l.85 1.207c3.6928263 5.8995764 4.4256095 13.1830421 1.982 19.7.621.751 1.29 1.5 2.018 2.229 3.5326155-6.9798255 3.1532167-15.2996616-1-21.929z" fill="#783e22"/><g fill="#000"><path id="Shape" d="m4.5 36h.761c1.12639247 6.9830775 6.0325781 12.7654366 12.739 15.014v.986h-3c-4.4162219.0049599-7.99504012 3.5837781-8 8 0 .5522847.44771525 1 1 1h32c.5522847 0 1-.4477153 1-1 0-4.418278-3.581722-8-8-8h-3v-.986c6.7064219-2.2485634 11.6126075-8.0309225 12.739-15.014h.761c2.4841391-.0027556 4.4972444-2.0158609 4.5-4.5-.0082318-2.4818637-2.0181363-4.4917682-4.5-4.5h-.4c3.5040197-7.2147199 3.0188389-15.7299836-1.282-22.5l-2.067-2.946c-.1833131-.26163278-.4805964-.41993613-.8-.426-.3216883-.01110115-.6277334.13892094-.816.4-1.6595321 2.03186991-4.0719411 3.30410358-6.686 3.526-4.589-4.899-16.986-4.011-17.526-3.97-.3545186.0272205-.6679206.2406404-.8231338.56053609-.1552133.31989568-.1288911.6981496.0691338.99346391.946 1.414-.048 2.916-.884 3.812-1.709-2.35-5.118-2.378-5.285-2.378-.32559612.00004995-.63078223.15861241-.818.425-4.30194444 6.7707604-4.78714285 15.2874685-1.282 22.503h-.4c-2.48186366.0082318-4.49176821 2.0181363-4.5 4.5.00275556 2.4841391 2.01586091 4.4972444 4.5 4.5zm32.743 19.757c.8841017.8788334 1.4696844 2.0132687 1.674 3.243h-29.834c.49183282-2.8850396 2.9903399-4.996335 5.917-5h3.142c.4545933 1.7606851 2.0395884 2.9931852 3.858 3h4c1.8184116-.0068148 3.4034067-1.2393149 3.858-3h3.142c1.5922272-.0045083 3.1200824.6281671 4.243 1.757zm-9.243-2.757c0 1.1045695-.8954305 2-2 2h-4c-1.1045695 0-2-.8954305-2-2v-1.432c2.6355643.5759848 5.3644357.5759848 8 0zm-4-3c-9.3845001-.010471-16.98952899-7.6154999-17-17v-5.6c1.48317516-1.5332312 2.82775326-3.1947121 4.018-4.965 5.438.511 15.058.533 23.552-4.016 1.7135097 3.2791923 3.8778675 6.3022246 6.43 8.981v5.6c-.010471 9.3845001-7.6154999 16.989529-17 17zm21.268-20.258c.4711706.4632543.7351534 1.0972456.732 1.758 0 1.3807119-1.1192881 2.5-2.5 2.5h-.551c.018-.333.051-.662.051-1v-4h.5c.6654792-.0022002 1.3034111.2655291 1.768.742zm-37.749-23.63c.96.116 2.962.56 3.533 2.267.1017679.30441971.3434793.54148565.6498164.63732738.3063372.09584174.6400615.03880872.8971836-.15332738 1.374-1.028 3.4-3.37 2.873-5.855 4.177-.12 12.078.36 14.748 3.686.1898404.23648872.4767406.37405366.78.374 2.9466715-.05010319 5.7572929-1.24891416 7.833-3.341l1.349 1.919c3.6525121 5.9006469 4.2219216 13.2045903 1.528 19.6-2.31699-2.5997362-4.2683299-5.5035318-5.8-8.631-.1172598-.2569657-.3377221-.4523573-.6069139-.5378967-.2691919-.0855394-.5620037-.0532475-.8060861.0888967-8.542 4.971-18.622 4.774-23.871 4.216-.372709-.0423237-.73723981.1300633-.941.445-1.01781404 1.5586948-2.15452977 3.0364253-3.4 4.42-2.67052495-6.2089745-2.21191065-13.3204693 1.234-19.135zm-4.777 23.62c.4632543-.4711706 1.09724561-.7351534 1.758-.732h.5v4c0 .338.033.667.051 1h-.551c-1.38071187 0-2.5-1.1192881-2.5-2.5-.00220023-.6654792.26552911-1.3034111.742-1.768z"/><path id="Shape" d="m18 31c0-1.6568542-1.3431458-3-3-3s-3 1.3431458-3 3 1.3431458 3 3 3 3-1.3431458 3-3zm-3 1c-.5522847 0-1-.4477153-1-1s.4477153-1 1-1 1 .4477153 1 1-.4477153 1-1 1z"/><path id="Shape" d="m33 28c-1.6568542 0-3 1.3431458-3 3s1.3431458 3 3 3 3-1.3431458 3-3-1.3431458-3-3-3zm0 4c-.5522847 0-1-.4477153-1-1s.4477153-1 1-1 1 .4477153 1 1-.4477153 1-1 1z"/><path id="Shape" d="m31 38h-14c-.5522847 0-1 .4477153-1 1v1c0 4.418278 3.581722 8 8 8s8-3.581722 8-8v-1c0-.5522847-.4477153-1-1-1zm-9.539 7.428c.5388555-.886783 1.5013346-1.4281714 2.539-1.4281714s2.0001445.5413884 2.539 1.4281714c-1.6067555.7626768-3.4712445.7626768-5.078 0zm6.722-1.135c-.9114023-1.4283591-2.4886376-2.2929262-4.183-2.2929262s-3.2715977.8645671-4.183 2.2929262c-1.1616529-1.1261573-1.8172297-2.6750793-1.8170001-4.293h12.0000002c.0002296 1.6179207-.6553472 3.1668427-1.8170001 4.293z"/><path id="Shape" d="m23 36h2c.5522847 0 1-.4477153 1-1s-.4477153-1-1-1h-2c-.5522847 0-1 .4477153-1 1s.4477153 1 1 1z"/><path id="Shape" d="m13 27h3c.5522847 0 1-.4477153 1-1s-.4477153-1-1-1h-3c-.5522847 0-1 .4477153-1 1s.4477153 1 1 1z"/><path id="Shape" d="m35 25h-3c-.5522847 0-1 .4477153-1 1s.4477153 1 1 1h3c.5522847 0 1-.4477153 1-1s-.4477153-1-1-1z"/></g></g></g></svg>